inDegrees=yes
name=ik_S54_A11_T01
DataType=double
version=3
OpenSimVersion=4.3-2021-08-27-4bc7ad9
endheader
time	pelvis_tilt	pelvis_list	pelvis_rotation	pelvis_tx	pelvis_ty	pelvis_tz	hip_flexion_r	hip_adduction_r	hip_rotation_r	knee_angle_r	knee_angle_r_beta	ankle_angle_r	subtalar_angle_r	mtp_angle_r	hip_flexion_l	hip_adduction_l	hip_rotation_l	knee_angle_l	knee_angle_l_beta	ankle_angle_l	subtalar_angle_l	mtp_angle_l	lumbar_extension	lumbar_bending	lumbar_rotation	arm_flex_r	arm_add_r	arm_rot_r	elbow_flex_r	pro_sup_r	wrist_flex_r	wrist_dev_r	arm_flex_l	arm_add_l	arm_rot_l	elbow_flex_l	pro_sup_l	wrist_flex_l	wrist_dev_l
4.799999999999986	0.7715646721289948	0.5136987285314385	31.8499989992715	0	0.9399999999999999	0	21.16917914252767	-7.77972739290735	-6.687348759307888	22.54536729853163	0.3934908904308363	0	0	0	21.16917914252767	-7.77972739290735	-6.687348759307888	22.54536729853163	0.3934908904308363	0	0	0	1.17612387307863	0.3859777286901692	20.00539510385386	-0.9228110283259324	-2.980323792339377	-5.731135776975916	4.058457137507238	107.4115214796859	0	0	1.193001627624451	-4.179939424693216	-2.452014840174745	3.583342495665558	108.580510172851	0	0
4.819999999999985	0.7693949680063167	0.498641197093842	31.99111421213928	0	0.9399999999999999	0	21.17865220349432	-7.78246915438566	-6.689992193582333	22.55581015788038	0.3936731527097947	0	0	0	21.17865220349432	-7.78246915438566	-6.689992193582333	22.55581015788038	0.3936731527097947	0	0	0	1.166001819558022	0.374746829837779	20.01969271141351	-0.922901856006263	-2.928975150999588	-5.893152487844866	4.422345905401848	107.8464109213435	0	0	1.172083172016831	-4.226705412905548	-2.191632268006895	3.650819919555608	108.5591723731461	0	0
4.839999999999985	0.7479079387341214	0.4867482422259482	31.87258858268276	0	0.9399999999999999	0	21.18732957871461	-7.785008371782165	-6.692429801579078	22.56528996826873	0.393838606613536	0	0	0	21.18732957871461	-7.785008371782165	-6.692429801579078	22.56528996826873	0.393838606613536	0	0	0	1.139372973592984	0.3795139163780713	20.17243220875892	-0.4052041244291032	-4.344546132682392	-6.786536396111719	4.451664146689767	109.0714539297065	0	0	1.200599486972677	-4.202134800329356	-2.079708311474282	3.681085575131402	108.5499890283143	0	0
4.859999999999984	0.7735538977644563	0.4775135215543253	31.88722216302693	0	0.9399999999999999	0	21.27025859615711	-7.802871673607186	-6.712704377041448	22.65403167799982	0.3953874416321928	0	0	0	21.27025859615711	-7.802871673607186	-6.712704377041448	22.65403167799982	0.3953874416321928	0	0	0	1.155467066429678	0.357880226430387	20.15244783170446	-0.4142781511969404	-4.257738277848121	-6.799867570495397	4.607841650223389	109.390883320358	0	0	1.172877057652371	-4.278745889530494	-2.013634171504341	3.65102159474313	108.4911505730138	0	0
4.879999999999984	0.6023723568298897	0.2685420724565478	31.94481035376843	0	0.9399999999999999	0	21.27545181117841	-7.80433781948864	-6.714133152033783	22.65983939541533	0.3954888054231188	0	0	0	21.27545181117841	-7.80433781948864	-6.714133152033783	22.65983939541533	0.3954888054231188	0	0	0	0.9002263652954134	0.2693433421557316	20.12650187930848	0.1326479352542892	-4.222933240107673	-6.802943322634452	4.978221948555288	109.6558480051359	0	0	1.702522829387191	-4.261202453747365	-1.938685493733382	3.722087576263783	108.4541788190334	0	0
4.899999999999983	0.5047019059945769	0.1799276860158205	31.95924497858863	0	0.9399999999999999	0	21.28627581783567	-7.807414417917864	-6.717123182974183	22.67188019277804	0.3956989569816636	0	0	0	21.28627581783567	-7.807414417917864	-6.717123182974183	22.67188019277804	0.3956989569816636	0	0	0	0.7704617188817899	0.2451239330689809	20.07635192979899	0.3758222722390391	-4.224750823935885	-6.766530224278492	5.569879055402961	110.1529971576161	0	0	1.962086130765619	-4.212797403992484	-1.934144383863903	3.667058001037022	108.4519337172684	0	0
4.919999999999983	0.4129824441008719	0.1034579410766976	32.15076883017518	0	0.9399999999999999	0	21.3033056340561	-7.812349772731839	-6.721883322047184	22.69052623049441	0.3960243917322652	0	0	0	21.3033056340561	-7.812349772731839	-6.721883322047184	22.69052623049441	0.3960243917322652	0	0	0	0.6521715105311644	0.2269368927146406	19.87603593430565	0.598876594736508	-4.181223047910907	-6.69736069710344	7.293656742206288	111.8231358186541	0	0	2.184613428732129	-4.14663549030431	-1.870207077280018	3.681216213764465	108.38449340334	0	0
4.939999999999983	0.3445465815892033	0.04535586861227251	32.11190504617787	0	0.9399999999999999	0	21.30897120583258	-7.81399256535171	-6.723467691870145	22.69672248669889	0.3961325368043306	0	0	0	21.30897120583258	-7.81399256535171	-6.723467691870145	22.69672248669889	0.3961325368043306	0	0	0	0.56321463314094	0.2142549565571087	19.87762317476913	0.777590462216696	-4.224494155479392	-6.666872261297728	7.307624391988016	111.8159381941774	0	0	2.339698152932517	-4.106118373158693	-1.834103927648133	3.709185444226639	108.4477626840962	0	0
4.959999999999982	0.3338285272554238	0.04499790018902054	31.88171622803314	0	0.9399999999999999	0	21.31932435082186	-7.817004198246127	-6.726368816781139	22.70801119326257	0.3963295619021583	0	0	0	21.31932435082186	-7.817004198246127	-6.726368816781139	22.70801119326257	0.3963295619021583	0	0	0	0.5543534435468402	0.2169765255076255	20.1036537149569	2.901132341253931	-5.103793408672005	-7.993084162955271	7.037371382146378	113.6617381970417	0	0	2.328924250097684	-4.073071797553533	-1.585489996810592	3.727903656637134	108.319626122809	0	0
4.979999999999982	0.3220038855809373	0.02537130628824281	31.82984327382548	0	0.9399999999999999	0	21.33423878290509	-7.821333919939882	-6.730543930779016	22.72428307721952	0.3966135598527094	0	0	0	21.33423878290509	-7.821333919939882	-6.730543930779016	22.72428307721952	0.3966135598527094	0	0	0	0.5333529666088331	0.2075684828869509	20.15821095558583	2.94275599707351	-4.941578186887028	-7.9532009363931	8.393067876579041	113.1268247115022	0	0	2.370337325188657	-4.085980778301136	-1.431686223063668	3.718410205025582	108.3155064668579	0	0
4.999999999999981	0.2984509269796793	-0.03521167054213049	31.73986271111128	0	0.9399999999999999	0	21.34030837041943	-7.823090660771745	-6.732240203957389	22.73091644915161	0.3967293340334338	0	0	0	21.34030837041943	-7.823090660771745	-6.732240203957389	22.73091644915161	0.3967293340334338	0	0	0	0.4813483588534789	0.1698576175479838	20.35103241279678	4.044188720184327	-5.122514540144718	-8.955271646208468	8.899667965277267	113.0381754406568	0	0	2.497193725379812	-4.124008249952593	-1.331230796636849	3.781491728233182	108.420136258555	0	0
